<?xml version="1.0" encoding="UTF-8"?>
<svg id="Triangle" xmlns="http://www.w3.org/2000/svg" viewBox="0 0 300 300">
  <polygon points="204.64 147.24 206.19 150 205.25 148.33 206.35 150.28 210.79 158.18 300 188.28 300 179.42 204.64 147.24 204.64 147.24 204.64 147.24" fill="#12120d"/>
  <polygon points="102.64 132.76 102.51 132.99 0 143.88 0 152.33 97.36 141.98 99.82 137.69 97.82 141.17 97.82 141.17 102.64 132.76 102.64 132.76" fill="#12120d"/>
  <polygon points="206.92 151.3 206.35 150.28 206.19 150 206.92 151.3" fill="#12120d"/>
  <polygon points="204.64 147.24 204.64 147.24 150 50 102.64 132.76 204.64 147.24 204.64 147.24" fill="#12120d"/>
  <polygon points="145.33 168.24 76.07 179.18 81.71 169.33 81.48 169.73 0 186.06 0 194.62 75.95 179.4 81.38 169.9 69.49 190.68 69.57 190.54 145.33 168.24" fill="#12120d"/>
  <polygon points="69.49 190.68 69.49 190.68 0 207.55 0 216.19 63.75 200.72 63.12 201.82 63.12 201.82 65.57 197.53 69.49 190.68" fill="#12120d"/>
  <polygon points="63.12 201.82 35.54 250 262.38 250 210.87 158.32 63.12 201.82" fill="#12120d"/>
  <polygon points="81.8 169.16 152.76 157.96 87.93 158.46 89.9 155.02 89.42 155.86 93.06 149.49 0 164.37 0 172.87 87.71 158.85 81.8 169.16" fill="#12120d"/>
  <polygon points="93.03 149.55 89.9 155.02 92.77 150 93.03 149.55" fill="#12120d"/>
  <polygon points="93.1 149.43 152.69 148.96 97.82 141.17 93.06 149.49 93.06 149.49 93.1 149.43" fill="#12120d"/>
</svg>