<?xml version="1.0" encoding="UTF-8"?>
<svg id="Logo_V02" xmlns="http://www.w3.org/2000/svg" viewBox="0 0 600 200">
  <path id="DARC-Logo" d="M514.82,173.55c-12.5,0-23.66-2.9-33.49-8.71-9.82-5.8-17.57-14.16-23.25-25.07s-8.51-24.01-8.51-39.32,2.85-28.53,8.56-39.47c5.71-10.94,13.49-19.31,23.34-25.11,9.86-5.8,20.97-8.71,33.34-8.71,7.78,0,15.07,1.1,21.86,3.3,6.79,2.2,12.85,5.42,18.18,9.66,5.32,4.24,9.71,9.42,13.15,15.55s5.74,13.08,6.89,20.86h-25.74c-.83-4.27-2.25-8.04-4.26-11.29-2.01-3.25-4.51-6.01-7.51-8.28-3-2.26-6.38-3.99-10.14-5.17-3.76-1.18-7.78-1.77-12.05-1.77-7.78,0-14.68,1.96-20.71,5.88-6.03,3.92-10.75,9.63-14.16,17.13-3.41,7.5-5.12,16.63-5.12,27.41s1.72,20.09,5.17,27.55,8.18,13.11,14.21,16.93c6.03,3.83,12.87,5.74,20.52,5.74,4.27,0,8.29-.59,12.05-1.77,3.76-1.18,7.16-2.9,10.19-5.17,3.03-2.26,5.57-5.04,7.61-8.32,2.04-3.28,3.44-7.03,4.21-11.24h25.83c-.96,6.83-3.05,13.22-6.27,19.18-3.22,5.96-7.45,11.21-12.68,15.74-5.23,4.53-11.31,8.07-18.22,10.62-6.92,2.55-14.59,3.83-23.01,3.83ZM165.85,128.47l54.99-16.19-50.27,7.94,4.16-7.27,51.51-8.14-47.06.37,3.52-6.14.24-.42,43.26-.34-39.83-5.65,3.26-5.69.24-.41,74.05,10.51-39.66-70.59-59.95,104.76,1.57-2.74ZM268.41,105.08l-107.25,31.58-20.01,34.97h164.66l-37.39-66.55ZM440.53,156.64l3.11-9.21-55.65-18.78-15.52-5.24h3.19c10.97,0,20.22-2.04,27.75-6.12,7.53-4.08,13.22-9.66,17.08-16.74,3.86-7.08,5.79-15.18,5.79-24.3s-1.91-17.14-5.74-24.25c-3.83-7.11-9.47-12.71-16.93-16.79-7.46-4.08-16.65-6.12-27.55-6.12h-53.29v87.82l-58.86-19.86,1.13,2,3.34,5.94,54.4,18.35v48.3h25.54v-29.42l30.82,10.4,56.36,19.02,3.89-11.54,1.16-3.45h0ZM348.29,50.51h23.82c6.51,0,11.83,1.09,15.98,3.25,4.15,2.17,7.19,5.2,9.14,9.09,1.95,3.89,2.92,8.36,2.92,13.39s-.97,9.54-2.92,13.49c-1.95,3.96-4.98,7.05-9.09,9.28-4.12,2.23-9.39,3.35-15.83,3.35h-24.01v-51.85ZM189.76,86.69l-47.9,5.09c-.86-11.21-3.45-21.13-7.84-29.7-5.45-10.65-13.25-18.81-23.39-24.49-10.14-5.68-22.29-8.51-36.45-8.51H25v142.55h48.22c14.48,0,26.87-2.85,37.17-8.56,8.72-4.83,15.68-11.46,20.92-19.85l30.31-7.36,4.17-7.28-30.61,7.43c1.34-2.93,2.5-6.01,3.46-9.24l31.84-6.38,4.02-7.02-34.21,6.86c.58-2.82,1.03-5.75,1.34-8.77l37.39-5.98,3.89-6.79-40.82,6.53c.07-1.65.12-3.33.12-5.03,0-.77-.04-1.52-.05-2.28l43.87-4.67,3.74-6.53ZM72.65,51.18c9.76,0,17.91,1.82,24.44,5.45,6.54,3.64,11.5,9.09,14.88,16.36,2.77,5.95,4.38,13.11,4.88,21.45l-66.31,7.05v-50.31h22.1ZM96.9,144.03c-2.17,1.19-4.53,2.17-7.05,2.98l-6.61,1.61c-3.49.6-7.23.92-11.26.92h-21.43v-5.12l58.6-11.74c-3.15,4.81-7.24,8.6-12.25,11.36ZM112.74,125.74l-62.2,12.46v-12.19l65.15-10.42c-.7,3.69-1.7,7.06-2.96,10.15ZM116.59,109.28l-66.04,10.56v-12.21l66.49-7.07c-.01,3.05-.17,5.95-.44,8.72Z" fill="#12120d"/>
</svg>